<?xml version="1.0" encoding="iso-8859-1"?>
<!-- Generator: Adobe Illustrator 19.0.0, SVG Export Plug-In . SVG Version: 6.00 Build 0)  -->
<svg version="1.1" id="Layer_1" xmlns="http://www.w3.org/2000/svg" xmlns:xlink="http://www.w3.org/1999/xlink" x="0px" y="0px"
	 viewBox="0 0 512 512" style="enable-background:new 0 0 512 512;" xml:space="preserve">
<g>
	<g>
		<path fill="#49b147" d="M451.866,63.373H60.134C26.976,63.373,0,90.344,0,123.494v188.574v71.558v51.669c0,7.362,5.968,13.331,13.331,13.331
			s13.331-5.968,13.331-13.331v-38.339h458.678v38.339c0,7.362,5.968,13.331,13.331,13.331S512,442.658,512,435.296v-51.669v-71.558
			V123.494C512,90.344,485.024,63.373,451.866,63.373z M26.661,123.494c0-18.449,15.016-33.46,33.473-33.46h391.732
			c18.458,0,33.473,15.01,33.473,33.46v98.437c-14.546-13.292-33.896-21.413-55.109-21.413h-8.465v-28.607
			c0-19.846-16.146-35.992-35.993-35.992H278.662c-8.582,0-16.47,3.025-22.662,8.057c-6.192-5.032-14.08-8.057-22.662-8.057H126.227
			c-19.847,0-35.992,16.146-35.992,35.992v28.607H81.77c-21.213,0-40.561,8.122-55.109,21.413V123.494z M395.104,171.911v28.607
			H269.331v-28.607c0-5.146,4.186-9.331,9.331-9.331h107.111C390.919,162.579,395.104,166.765,395.104,171.911z M242.669,171.911
			v28.607H116.896v-28.607c0-5.146,4.186-9.331,9.331-9.331h107.111C238.484,162.579,242.669,166.765,242.669,171.911z
			 M485.339,298.738H145.356c-7.362,0-13.331,5.968-13.331,13.331c0,7.362,5.968,13.331,13.331,13.331h339.982v44.897H26.661
			v-44.897h25.827c7.362,0,13.331-5.968,13.331-13.331c0-7.362-5.968-13.331-13.331-13.331H26.661v-16.463
			c0-30.38,24.721-55.095,55.109-55.095h21.795H256h152.435h21.795c30.387,0,55.109,24.716,55.109,55.095V298.738z"/>
	</g>
</g>
<g>
	<g>
		<path fill="#49b147" d="M101.366,298.738h-7.553c-7.362,0-13.331,5.968-13.331,13.331c0,7.362,5.968,13.331,13.331,13.331h7.553
			c7.362,0,13.331-5.968,13.331-13.331C114.696,304.706,108.728,298.738,101.366,298.738z"/>
	</g>
</g>
<g>
</g>
<g>
</g>
<g>
</g>
<g>
</g>
<g>
</g>
<g>
</g>
<g>
</g>
<g>
</g>
<g>
</g>
<g>
</g>
<g>
</g>
<g>
</g>
<g>
</g>
<g>
</g>
<g>
</g>
</svg>
