<?xml version="1.0" encoding="iso-8859-1"?>
<!-- Generator: Adobe Illustrator 19.0.0, SVG Export Plug-In . SVG Version: 6.00 Build 0)  -->
<svg version="1.1" id="Capa_1" xmlns="http://www.w3.org/2000/svg" xmlns:xlink="http://www.w3.org/1999/xlink" x="0px" y="0px"
	 viewBox="0 0 48 48" style="enable-background:new 0 0 48 48;" xml:space="preserve">
<g>
	<g>
		<path fill="#49b147" d="M47.262,12.352C47.071,12.129,46.793,12,46.5,12h-2V3.997C44.5,1.793,42.708,0,40.505,0H7.495
			C5.292,0,3.5,1.793,3.5,3.997V12h-2c-0.293,0-0.571,0.129-0.762,0.352c-0.19,0.223-0.273,0.519-0.226,0.808l4.029,25.025
			C4.796,39.764,6.249,41,7.851,41H8.5v3v1v3h2v-2h28v2h2v-3v-1v-3c0-0.012-0.006-0.021-0.007-0.033
			c1.459-0.162,2.728-1.319,2.965-2.783l4.029-25.025C47.534,12.87,47.451,12.574,47.262,12.352z M7.495,2h33.01
			C41.606,2,42.5,2.895,42.5,3.997V7h-37V3.997C5.5,2.895,6.395,2,7.495,2z M5.5,9h37v3h-12h-13h-12C5.5,12,5.5,9,5.5,9z M18.5,14
			h11v2h-11V14z M10.5,44v-2h28v2H10.5z M41.483,37.866C41.386,38.471,40.763,39,40.149,39H7.851c-0.613,0-1.236-0.529-1.334-1.134
			L2.674,14H4.5h12v3c0,0.553,0.447,1,1,1h13c0.553,0,1-0.447,1-1v-3h12h1.826L41.483,37.866z"/>
		<rect x="33.5" y="4" width="3" height="2"/>
	</g>
</g>
<g>
</g>
<g>
</g>
<g>
</g>
<g>
</g>
<g>
</g>
<g>
</g>
<g>
</g>
<g>
</g>
<g>
</g>
<g>
</g>
<g>
</g>
<g>
</g>
<g>
</g>
<g>
</g>
<g>
</g>
</svg>
